<?xml version="1.0" standalone="no"?>
<!DOCTYPE svg PUBLIC "-//W3C//DTD SVG 20010904//EN"
 "http://www.w3.org/TR/2001/REC-SVG-20010904/DTD/svg10.dtd">
<svg version="1.0" xmlns="http://www.w3.org/2000/svg"
 width="1024.000000pt" height="1024.000000pt" viewBox="0 0 1024.000000 1024.000000"
 preserveAspectRatio="xMidYMid meet">

<g transform="translate(0.000000,1024.000000) scale(0.100000,-0.100000)"
fill="#000000" stroke="none">
<path d="M2188 8290 c-25 -5 -59 -15 -75 -24 -15 -8 -38 -19 -49 -25 -32 -14
-90 -90 -121 -157 -27 -57 -28 -65 -27 -214 1 -139 4 -168 32 -275 47 -182 82
-294 118 -372 7 -17 14 -35 14 -41 0 -5 12 -36 26 -68 14 -33 29 -68 34 -79
26 -66 250 -524 285 -585 92 -160 125 -225 125 -244 0 -13 -19 -40 -46 -66
-25 -25 -85 -97 -132 -160 -90 -119 -99 -133 -128 -187 -10 -18 -21 -33 -26
-33 -4 0 -8 -5 -8 -12 0 -6 -11 -25 -23 -42 -13 -17 -56 -98 -96 -181 -40 -82
-77 -158 -82 -167 -5 -10 -9 -26 -9 -36 0 -10 -4 -22 -8 -28 -14 -15 -27 -55
-88 -269 -7 -27 -21 -88 -29 -133 -8 -46 -17 -87 -19 -91 -7 -10 -27 -244 -31
-361 -6 -137 13 -400 35 -505 67 -306 105 -441 155 -550 18 -38 41 -92 51
-120 9 -27 25 -61 34 -75 9 -14 28 -47 42 -75 36 -70 105 -182 158 -255 25
-34 50 -70 55 -79 6 -9 25 -34 44 -56 18 -22 45 -54 60 -72 34 -42 186 -198
240 -247 75 -69 310 -246 326 -246 3 0 37 -21 77 -47 262 -168 630 -298 973
-343 44 -6 114 -15 155 -20 162 -21 499 -4 692 36 229 47 466 114 523 149 12
7 52 25 90 40 39 16 102 46 140 68 39 21 80 39 92 39 13 0 51 -28 100 -74 82
-79 175 -164 233 -213 18 -17 44 -39 55 -50 39 -36 301 -248 410 -331 51 -39
189 -133 273 -186 307 -194 570 -268 735 -207 46 17 76 37 119 81 50 51 60 68
84 143 25 79 26 96 21 208 -5 118 -18 197 -59 342 -27 95 -66 213 -84 252 -8
17 -14 35 -14 41 0 8 -12 37 -66 159 -8 17 -14 33 -14 36 0 7 -118 257 -130
277 -5 8 -23 42 -41 75 -17 33 -40 72 -50 87 -10 14 -19 28 -19 31 0 14 -201
299 -256 364 -11 12 -30 36 -44 53 -14 18 -42 53 -62 78 -21 26 -38 51 -38 55
0 5 -9 21 -20 37 -19 27 -19 28 -1 66 67 142 143 454 171 704 20 174 6 471
-20 455 -5 -3 -11 -36 -14 -73 -9 -97 -34 -253 -57 -357 -22 -96 -76 -273 -89
-290 -4 -5 -10 -23 -14 -40 -4 -16 -32 -81 -62 -143 -41 -85 -58 -111 -68
-105 -8 4 -55 60 -106 123 -50 63 -96 117 -102 119 -5 2 3 -21 20 -50 16 -30
55 -105 87 -167 68 -134 72 -118 -75 -317 -199 -268 -547 -542 -864 -679 l-39
-17 -106 108 c-242 246 -652 703 -881 982 -19 24 -40 48 -46 54 -5 7 -54 65
-107 130 -54 65 -102 124 -108 130 -15 18 -89 119 -131 179 -21 29 -49 66 -63
82 -14 16 -25 33 -25 38 0 4 -7 8 -15 8 -8 0 -15 4 -15 9 0 5 -20 33 -43 63
-43 52 -224 292 -269 356 -41 58 -47 66 -79 107 -17 22 -42 56 -55 75 -13 19
-53 76 -88 125 -68 95 -171 242 -196 280 -8 12 -46 69 -85 126 -38 57 -74 112
-80 121 -5 9 -44 69 -85 133 -159 245 -188 292 -194 313 -6 17 3 35 38 79 79
103 227 248 336 331 30 23 62 48 70 56 8 7 25 18 37 25 12 6 27 17 35 24 24
23 206 131 278 163 19 9 67 31 106 50 39 18 84 36 100 39 16 4 41 11 56 17 32
12 58 5 90 -25 63 -57 138 -118 138 -111 0 4 -22 40 -50 80 -27 40 -50 77 -50
82 0 16 129 50 295 77 109 18 337 22 513 9 177 -13 229 -11 200 7 -7 5 -27 9
-44 9 -16 0 -34 4 -40 8 -22 20 -234 63 -419 84 -106 12 -471 4 -563 -13 -64
-11 -64 -11 -88 17 -59 70 -114 143 -114 152 0 6 -4 12 -9 14 -4 2 -50 55
-102 118 -137 168 -261 285 -509 479 -58 45 -116 91 -130 102 -152 120 -331
233 -496 315 -141 70 -223 99 -321 113 -80 12 -97 12 -165 1z m227 -280 c81
-29 189 -84 314 -160 58 -34 109 -66 115 -71 6 -5 76 -57 156 -115 80 -59 152
-113 160 -120 8 -8 53 -46 100 -85 47 -39 109 -92 139 -117 29 -26 95 -78 145
-116 104 -79 181 -140 213 -170 12 -12 44 -41 72 -65 28 -24 51 -47 51 -51 0
-4 -30 -15 -67 -24 -61 -14 -104 -26 -253 -70 -25 -8 -76 -29 -115 -48 -38
-20 -81 -38 -95 -41 -14 -3 -51 -22 -84 -42 -32 -19 -62 -35 -67 -35 -9 0
-111 -59 -119 -69 -3 -3 -21 -14 -40 -24 -19 -10 -89 -58 -155 -107 -128 -95
-130 -95 -160 -37 -9 18 -36 68 -61 112 -42 76 -206 405 -244 490 -67 150 -86
196 -123 295 -84 224 -127 405 -127 540 0 87 9 115 49 148 22 18 118 9 196
-18z m485 -2367 c38 -60 74 -115 80 -123 5 -8 78 -118 162 -245 84 -126 156
-234 161 -240 11 -13 153 -212 175 -246 9 -14 64 -89 122 -168 58 -78 121
-164 140 -191 118 -162 251 -331 291 -370 25 -25 59 -65 75 -90 16 -25 31 -47
34 -50 3 -3 17 -23 32 -45 15 -22 39 -53 53 -70 13 -16 28 -34 33 -40 137
-171 188 -233 201 -247 21 -22 35 -39 98 -116 69 -84 110 -131 375 -432 62
-70 214 -235 313 -340 129 -137 135 -143 135 -152 0 -9 -55 -24 -137 -39 -32
-5 -92 -18 -133 -27 -61 -14 -125 -17 -335 -17 -245 1 -268 2 -395 29 -186 38
-269 61 -380 102 -108 40 -294 129 -360 172 -270 175 -285 186 -456 357 -124
124 -212 233 -320 400 -27 40 -111 204 -157 305 -61 134 -123 366 -162 607
-18 112 -21 401 -6 513 5 36 14 101 20 145 7 44 15 91 20 105 5 14 14 50 21
80 11 50 37 132 74 235 36 99 136 305 149 305 4 0 39 -48 77 -107z m4029
-2626 c157 -320 275 -569 346 -732 26 -60 56 -128 66 -150 10 -22 34 -80 53
-130 124 -326 168 -549 135 -679 -17 -68 -70 -82 -193 -50 -82 21 -270 113
-379 185 -49 33 -91 59 -94 59 -6 0 -321 236 -345 259 -9 9 -23 21 -30 26 -96
75 -278 236 -401 355 l-88 85 58 42 c56 41 75 57 212 181 51 46 189 195 231
249 59 76 130 175 146 203 10 19 22 39 27 45 25 34 87 138 111 188 16 31 33
57 40 57 6 0 53 -87 105 -193z"/>
<path d="M3560 3934 c39 -90 22 -175 -56 -279 -78 -104 -89 -114 -246 -251
-16 -13 -28 -30 -27 -37 0 -9 2 -9 6 0 5 15 138 113 152 113 5 0 11 4 13 8 2
5 28 21 58 36 142 72 264 88 354 48 27 -12 52 -22 56 -22 5 0 1 18 -7 39 -16
41 -11 125 8 136 5 4 9 16 9 28 0 12 6 33 13 48 22 41 46 119 38 119 -5 0 -25
-7 -44 -15 -45 -19 -129 -19 -170 -1 -18 8 -63 28 -101 45 -37 17 -70 31 -72
31 -2 0 6 -21 16 -46z"/>
<path d="M8500 7651 c-73 -36 -254 -133 -310 -165 -25 -14 -58 -33 -75 -42
-16 -8 -48 -26 -70 -39 -22 -14 -62 -37 -90 -52 -27 -15 -59 -33 -70 -40 -11
-7 -38 -22 -61 -34 l-40 -21 -70 50 c-147 107 -283 161 -473 188 -115 16 -128
16 -239 0 -178 -26 -290 -66 -427 -154 -123 -78 -290 -266 -344 -387 -123
-273 -137 -544 -42 -791 16 -41 17 -55 8 -66 -7 -8 -100 -85 -207 -171 -152
-121 -265 -225 -506 -464 -171 -169 -353 -355 -404 -413 -51 -58 -107 -121
-124 -140 -17 -19 -53 -62 -81 -95 -27 -33 -102 -114 -166 -180 -101 -104
-238 -280 -226 -291 7 -8 73 18 172 68 55 28 102 54 105 57 3 3 25 17 50 30
25 14 56 32 70 41 43 27 64 40 90 52 14 7 27 15 30 18 3 3 30 20 61 37 30 17
96 57 145 89 111 73 112 74 164 104 23 14 50 30 59 35 81 51 198 117 254 144
38 17 74 36 80 41 7 5 37 29 67 53 117 91 516 411 532 426 9 9 23 21 30 26 26
20 104 83 127 104 13 11 26 21 28 21 3 0 35 -17 71 -37 97 -55 164 -80 282
-109 94 -24 118 -26 250 -21 167 5 253 24 385 86 121 57 189 104 285 201 197
197 290 422 290 700 0 167 -42 358 -96 434 -8 11 -14 27 -14 36 0 8 39 58 86
110 48 52 101 111 118 130 153 168 376 437 376 453 0 13 -24 6 -80 -22z
m-1164 -439 c76 -26 204 -93 203 -107 0 -5 -60 -49 -133 -98 l-133 -87 -43 15
c-59 21 -150 19 -233 -6 -108 -32 -178 -84 -245 -181 -35 -51 -72 -164 -72
-222 0 -40 -3 -43 -107 -126 -154 -123 -140 -115 -152 -92 -14 27 -31 136 -31
205 0 77 18 191 36 225 8 15 14 33 14 40 0 25 65 134 118 198 90 110 206 188
342 232 98 31 95 31 240 27 103 -2 150 -8 196 -23z m505 -576 c7 -40 9 -117 6
-176 -16 -283 -183 -511 -467 -635 -46 -20 -190 -45 -260 -45 -105 0 -251 35
-328 78 -22 13 -19 16 90 104 62 49 116 95 120 101 4 7 47 12 111 13 84 2 115
7 165 28 160 65 268 212 279 381 l5 70 116 117 116 117 18 -41 c10 -22 23 -73
29 -112z"/>
<path d="M7053 4615 c0 -22 2 -30 4 -17 2 12 2 30 0 40 -3 9 -5 -1 -4 -23z"/>
</g>
</svg>
